# xmcd
#
# Track frame offsets: 
#        150
#        20415
#        47352
#        70161
#        93210
#        118083
#        148716
#        169485
#        192654
#
# Disc length: 3057 seconds
#
# Revision: 0
# Processed by: cddbd v1.5.2PL0 Copyright (c) Steve Scherf et al.
# Submitted via: ExactAudioCopy v1.5
#
DISCID=7d0bef09
DTITLE=Dave Tiger and the Prior Warning Experience - Wild Dogs on the 
DTITLE=Prowl
DYEAR=2019
DGENRE=Blues
TTITLE0=Leaving Blues
TTITLE1=West Australian Land
TTITLE2=Wild Dogs On The Prowl (Song for Steve)
TTITLE3=Attraction
TTITLE4=Precious Thing (Song for a daughter)
TTITLE5=Moonlight on the Motorway
TTITLE6=Pack It In
TTITLE7=High School Science Teacher Blues
TTITLE8=Long Song Blues (Timmies Song)
EXTD=
EXTT0=
EXTT1=
EXTT2=
EXTT3=
EXTT4=
EXTT5=
EXTT6=
EXTT7=
EXTT8=
PLAYORDER=
